<svg width="100" height="20" viewBox="0 0 100 20" fill="none" xmlns="http://www.w3.org/2000/svg"><path d="M87 .3h2.7l3.2 13.3L96.1.3h2.5L94 19.7h-2.4L87 .3Zm-1.2 0h2.6l.4 12.8v6.6h-3V.3Zm11.5 0h2.7v19.4h-3v-6.6L97.3.3ZM76.1.3 78.5 9 80.9.3h3.4l-4.2 12.4v7h-3.2v-7L72.7.3H76ZM72.3 9.5v8A6 6 0 0 1 67 20c-.9 0-1.7-.2-2.4-.5A5 5 0 0 1 63 18c-.5-.7-.9-1.6-1.2-2.6a15 15 0 0 1-.4-3.7V8.4c0-1.5.2-2.7.4-3.7.3-1 .6-2 1.1-2.6A4.7 4.7 0 0 1 67 0c1.2 0 2.1.2 3 .7.7.5 1.2 1.3 1.6 2.2.4 1 .7 2.2.7 3.6h-3a7 7 0 0 0-.3-2c-.2-.4-.4-.8-.7-1a2 2 0 0 0-1.2-.3 2 2 0 0 0-1.1.3 2 2 0 0 0-.8.9L64.6 6l-.1 2.3v3.4c0 .9 0 1.7.2 2.3 0 .7.2 1.2.5 1.6.2.4.5.7.8.9.4.2.8.3 1.3.3.4 0 .7 0 .9-.2.2 0 .4-.2.5-.3l.4-.3v-3.5h-2.3v-3h5.5ZM48.5.3h5c1.1 0 2 .2 2.8.6.7.5 1.3 1.2 1.7 2 .4.9.6 2 .6 3.3 0 1-.1 2-.4 2.7-.2.7-.5 1.3-1 1.8-.4.5-.9.9-1.5 1.2l-1 .7h-4V9.4h2.8c.4 0 .8-.2 1-.4.4-.2.6-.6.7-1 .2-.4.2-1 .2-1.5 0-.6 0-1.2-.2-1.6a2 2 0 0 0-.6-1c-.2-.3-.6-.4-1-.4h-1.9v16.2h-3.2V.3Zm7.2 19.4-2.9-8.6h3.3l3 8.4v.2h-3.4ZM46 16.5v3.2h-7v-3.2h7ZM40 .3v19.4H37V.3H40Zm5 7.9v3.1h-6V8.2h6Zm.9-8v3.3H39V.3h6.8ZM30.4 12.9h-3.2V9.6h3.2c.5 0 .9 0 1.1-.3l.7-1 .2-1.6-.3-1.5c0-.5-.3-1-.6-1.2-.2-.3-.6-.5-1-.5h-2.3v16.2h-3.1V.3h5.3c1.1 0 2 .3 2.8.8.7.6 1.3 1.3 1.7 2.3.4 1 .6 2 .6 3.3A8 8 0 0 1 35 10c-.4.9-1 1.6-1.7 2.1-.8.5-1.7.8-2.8.8ZM19.5.3h3.2v13.3c0 1.5-.3 2.8-.7 3.7-.5 1-1 1.6-1.8 2-.8.5-1.7.7-2.7.7-1 0-2-.2-2.7-.6a4.4 4.4 0 0 1-1.8-2.1c-.5-1-.7-2.2-.7-3.7V.3h3.2v13.3c0 .9 0 1.5.2 2 .2.4.4.8.7 1l1 .2c.5 0 .9-.1 1.2-.3.3-.1.5-.5.7-1l.2-1.9V.3ZM7.1 14.6v-1a2 2 0 0 0-.4-.7c-.1-.3-.4-.5-.7-.7l-1.2-.8a26 26 0 0 1-1.7-1 8 8 0 0 1-1.4-1.2A5.2 5.2 0 0 1 .2 5.5c0-.9.2-1.6.4-2.3A5 5 0 0 1 3.2.4a5.1 5.1 0 0 1 4.6.4 5 5 0 0 1 1.8 2.1c.4 1 .6 2 .6 3.1H7c0-.5 0-1-.2-1.4a2 2 0 0 0-.6-1c-.2-.3-.6-.4-1-.4s-.8.1-1 .3c-.3.2-.5.5-.6.8l-.2 1.2c0 .3 0 .6.2.8L4 7l.8.6 1 .5 1.9 1.2c.6.4 1 .9 1.4 1.4.3.5.6 1 .8 1.7a7.8 7.8 0 0 1 0 4.4l-1 1.7c-.5.5-1 .9-1.6 1.1a5.7 5.7 0 0 1-4.1 0 4.9 4.9 0 0 1-2.9-3.1c-.3-.8-.4-1.8-.4-2.9h3.2l.1 1.5.4 1 .8.5c.2.2.6.2 1 .2s.7 0 1-.3c.2-.2.4-.4.5-.8l.1-1Z" fill="#fff"/></svg>